<svg xmlns="http://www.w3.org/2000/svg" xmlns:xlink="http://www.w3.org/1999/xlink" width="37" height="37" viewBox="0 0 37 37"><defs><style>.a{fill:url(#a);}.b{fill:#fff;}</style><linearGradient id="a" x2="0" y2="1" gradientUnits="objectBoundingBox"><stop offset="0" stop-color="#f9aa4b"/><stop offset="1" stop-color="#f7931a"/></linearGradient></defs><path class="a" d="M36.446,22.975A18.5,18.5,0,1,1,22.973.554,18.5,18.5,0,0,1,36.446,22.975Z" transform="translate(0 0)"/><path class="b" d="M17.137,9.376c.352-2.405-1.441-3.7-3.894-4.56l.8-3.258L12.1,1.063l-.775,3.172c-.511-.13-1.035-.252-1.556-.374l.78-3.193L8.6.174l-.8,3.257c-.423-.1-.838-.2-1.24-.3l0-.01L3.89,2.44,3.374,4.559s1.441.337,1.411.358A1.052,1.052,0,0,1,5.69,6.07L3.51,14.995a.705.705,0,0,1-.89.471c.019.029-1.412-.36-1.412-.36l-.964,2.27,2.528.643c.47.12.931.246,1.385.365l-.8,3.3,1.94.494.8-3.26c.53.147,1.045.282,1.548.41l-.793,3.245,1.943.494.8-3.289c3.312.64,5.8.382,6.852-2.677.845-2.463-.042-3.883-1.785-4.81a3.14,3.14,0,0,0,2.48-2.912ZM12.7,15.73c-.6,2.463-4.662,1.131-5.979.8l1.067-4.366C9.1,12.5,13.326,13.162,12.7,15.73Zm.6-6.389c-.548,2.24-3.928,1.1-5.025.823L9.242,6.2C10.338,6.483,13.87,7,13.3,9.34Z" transform="translate(9.113 6.528)"/></svg>