<svg xmlns="http://www.w3.org/2000/svg" width="12.009" height="13.589" viewBox="0 0 12.009 13.589"><defs><style>.a{fill:#fff;}</style></defs><g transform="translate(-5.991 -5.177)"><g transform="translate(10.045 17.112)"><path class="a" d="M42.2,71.4a.292.292,0,0,0-.264.407,2.085,2.085,0,0,0,1.917,1.246,2.12,2.12,0,0,0,1.941-1.246.292.292,0,0,0-.264-.407Z" transform="translate(-41.913 -71.4)"/></g><g transform="translate(5.991 5.177)"><path class="a" d="M31.013,33.008h0l-4.769-.024a1.258,1.258,0,0,1-1.15-.767,1.211,1.211,0,0,1,.264-1.342,4.847,4.847,0,0,0,1.51-4.026,14.234,14.234,0,0,1,.144-2.133v-.024A3.657,3.657,0,0,1,30.629,21.6h.743a3.657,3.657,0,0,1,3.619,3.092v.024a11.506,11.506,0,0,1,.144,2.133,4.774,4.774,0,0,0,1.51,4.026,1.22,1.22,0,0,1,.264,1.342,1.258,1.258,0,0,1-1.15.767Z" transform="translate(-24.996 -21.6)"/></g></g></svg>